<svg xmlns="http://www.w3.org/2000/svg" viewBox="0 0 256 256">
  <defs>
    <radialGradient id="glass" cx="50%" cy="46%" r="52%">
      <stop offset="0" stop-color="#ffffff" stop-opacity="0"/>
      <stop offset=".72" stop-color="#eef6ff" stop-opacity=".05"/>
      <stop offset=".9" stop-color="#d6e2f7" stop-opacity=".6"/>
      <stop offset="1" stop-color="#b9c9ea" stop-opacity=".9"/>
    </radialGradient>
    <linearGradient id="rim" x1="0" y1="0" x2="1" y2="1">
      <stop offset="0" stop-color="#ffffff"/>
      <stop offset=".35" stop-color="#e6d3ff"/>
      <stop offset=".6" stop-color="#bfe3ff"/>
      <stop offset=".85" stop-color="#fff1c4"/>
      <stop offset="1" stop-color="#f5d6f0"/>
    </linearGradient>
    <radialGradient id="floor" cx="50%" cy="50%" r="50%">
      <stop offset="0" stop-color="#c9a877"/>
      <stop offset="1" stop-color="#a88455"/>
    </radialGradient>
    <linearGradient id="leaf" x1="0" y1="1" x2="0" y2="0">
      <stop offset="0" stop-color="#2f8a45"/>
      <stop offset=".55" stop-color="#5cc267"/>
      <stop offset="1" stop-color="#b4ec8f"/>
    </linearGradient>
    <linearGradient id="leafBack" x1="0" y1="1" x2="0" y2="0">
      <stop offset="0" stop-color="#2f7040"/>
      <stop offset="1" stop-color="#7cbf6c"/>
    </linearGradient>
    <radialGradient id="shine" cx="32%" cy="24%" r="40%">
      <stop offset="0" stop-color="#fff" stop-opacity=".95"/>
      <stop offset=".5" stop-color="#fff" stop-opacity=".25"/>
      <stop offset="1" stop-color="#fff" stop-opacity="0"/>
    </radialGradient>
    <clipPath id="inside"><circle cx="128" cy="128" r="110"/></clipPath>
    <g id="spots" fill="#e9f7df" opacity=".85">
      <ellipse cx="0" cy="0" rx="2.4" ry="1.4"/>
      <ellipse cx="4" cy="-12" rx="2" ry="1.2"/>
      <ellipse cx="-3" cy="-24" rx="2.2" ry="1.3"/>
      <ellipse cx="3" cy="-36" rx="1.8" ry="1.1"/>
    </g>
  </defs>
    <g clip-path="url(#inside)">
    <circle cx="128" cy="128" r="110" fill="#f7fbff" opacity=".35"/>
    <ellipse cx="128" cy="214" rx="104" ry="34" fill="url(#floor)"/>
    <ellipse cx="128" cy="205" rx="86" ry="20" fill="#d8bb8c" opacity=".7"/>
    <g fill="url(#leafBack)">
      <path d="M126 200 C100 170 78 128 66 84 C88 118 112 150 138 196 Z"/>
      <path d="M132 200 C158 168 180 126 192 82 C170 118 146 152 122 196 Z"/>
      <path d="M128 200 C122 150 124 104 130 56 C140 104 140 150 136 200 Z"/>
    </g>
    <g fill="url(#leaf)" stroke="#2f7040" stroke-width="1.5" stroke-linejoin="round">
      <path d="M124 204 C92 186 60 160 38 128 C72 150 100 168 136 196 Z"/>
      <path d="M134 204 C166 186 198 160 220 128 C186 150 158 168 122 196 Z"/>
      <path d="M122 206 C104 172 94 132 96 92 C110 128 124 164 138 202 Z"/>
      <path d="M136 206 C154 172 164 132 162 92 C148 128 134 164 120 202 Z"/>
    </g>
    <g fill="#2f7040">
      <path d="M70 150 l-5 1 3 -4Z M86 162 l-5 2 2 -5Z M104 176 l-5 2 2 -5Z"/>
      <path d="M188 150 l5 1 -3 -4Z M172 162 l5 2 -2 -5Z M154 176 l5 2 -2 -5Z"/>
      <path d="M100 124 l-5 -1 4 -3Z M106 146 l-5 0 3 -4Z"/>
      <path d="M158 124 l5 -1 -4 -3Z M152 146 l5 0 -3 -4Z"/>
    </g>
    <g fill="none" stroke="#f4ffe8" stroke-width="3" stroke-linecap="round" opacity=".7">
      <path d="M58 140 C78 156 96 168 114 182"/>
      <path d="M200 140 C180 156 162 168 144 182"/>
      <path d="M104 112 C108 140 116 164 124 186"/>
      <path d="M154 112 C150 140 142 164 134 186"/>
    </g>
    <use href="#spots" transform="translate(84 164) rotate(-52)"/>
    <use href="#spots" transform="translate(174 164) rotate(52)"/>
    <use href="#spots" transform="translate(114 170) rotate(-16)"/>
    <use href="#spots" transform="translate(145 170) rotate(16)"/>
    <ellipse cx="129" cy="203" rx="22" ry="7" fill="#2f7040" opacity=".55"/>
  </g>
  <circle cx="128" cy="128" r="110" fill="url(#glass)"/>
  <circle cx="128" cy="128" r="110" fill="none" stroke="url(#rim)" stroke-width="6"/>
  <circle cx="128" cy="128" r="104" fill="none" stroke="#ffffff" stroke-width="1.5" opacity=".5"/>
  <ellipse cx="92" cy="70" rx="58" ry="38" transform="rotate(-28 92 70)" fill="url(#shine)"/>
  <ellipse cx="78" cy="58" rx="16" ry="8" transform="rotate(-35 78 58)" fill="#fff" opacity=".9"/>
  <path d="M200 170 a86 86 0 0 1 -44 46" fill="none" stroke="#fff" stroke-width="5" stroke-linecap="round" opacity=".55"/>
</svg>
